<svg width="44" height="38" viewBox="0 0 44 38" fill="none" xmlns="http://www.w3.org/2000/svg">
<path d="M26.0394 11.8777L22.9971 2.0688M26.0394 11.8777L13.365 11.8211M26.0394 11.8777L29.7417 23.8143M26.0394 11.8777L23.0244 15.8699M29.7417 23.8143L33.9134 20.8639L38.0851 17.9134M29.7417 23.8143L30.1207 25.0361L30.4996 26.2579M29.7417 23.8143L19.3554 31.135M29.7417 23.8143L24.9821 22.2787M22.9971 2.0688L21.8837 1.24063C20.6636 0.333113 18.9976 0.315582 17.7586 1.19722L2.02128 12.3961C0.787526 13.274 0.256864 14.8449 0.705441 16.2911L6.40625 34.6713C6.85788 36.1274 8.19875 37.1248 9.72324 37.1385L28.9665 37.3117C30.4807 37.3253 31.8325 36.3652 32.3185 34.9311L32.7734 33.5887M22.9971 2.0688L37.2894 12.6994C38.5095 13.6069 39.0055 15.1975 38.5175 16.6376L38.0851 17.9134M32.7734 33.5887L32.3944 32.3669L32.0154 31.1451M32.7734 33.5887L37.794 30.016L38.4579 28.0566L39.1219 26.0972M38.0851 17.9134L43.1057 14.3407L42.4418 16.3001L41.7778 18.2595M31.2575 28.7015L35.4293 25.7511L40.4499 22.1783M31.2575 28.7015L30.8786 27.4797L30.4996 26.2579M31.2575 28.7015L31.6365 29.9233L32.0154 31.1451M30.4996 26.2579L36.7572 21.8322L41.7778 18.2595M32.0154 31.1451L34.1013 29.6699L39.1219 26.0972M9.234 23.7228L13.365 11.8211M9.234 23.7228L14.2947 27.4289L19.3554 31.135M9.234 23.7228L13.9828 22.2414M13.365 11.8211L16.1553 15.765M19.3554 31.135L19.4291 26.2626M41.7778 18.2595L41.1138 20.2189L40.4499 22.1783M40.4499 22.1783L39.7859 24.1377L39.1219 26.0972" stroke="#D4AF37" stroke-width="1.09559" stroke-linecap="round" stroke-linejoin="round"/>
</svg>
